<?xml version="1.0" encoding="iso-8859-1"?>
<!-- Generator: Adobe Illustrator 19.0.0, SVG Export Plug-In . SVG Version: 6.00 Build 0)  -->
<svg version="1.1" id="Layer_1" xmlns="http://www.w3.org/2000/svg" xmlns:xlink="http://www.w3.org/1999/xlink" x="0px" y="0px"
	 viewBox="0 0 512 512" style="enable-background:new 0 0 512 512;" xml:space="preserve">
<g>
	<g>
		<path d="M375.271,156.915H191.202c-4.329,0-7.837,3.509-7.837,7.837c0,4.328,3.509,7.837,7.837,7.837h184.069
			c4.329,0,7.837-3.509,7.837-7.837C383.108,160.424,379.6,156.915,375.271,156.915z"/>
	</g>
</g>
<g>
	<g>
		<path d="M375.271,202.604H191.202c-4.329,0-7.837,3.509-7.837,7.837c0,4.328,3.509,7.837,7.837,7.837h184.069
			c4.329,0,7.837-3.509,7.837-7.837C383.108,206.112,379.6,202.604,375.271,202.604z"/>
	</g>
</g>
<g>
	<g>
		<path d="M375.271,248.291H191.202c-4.329,0-7.837,3.509-7.837,7.837c0,4.328,3.509,7.837,7.837,7.837h184.069
			c4.329,0,7.837-3.509,7.837-7.837C383.108,251.799,379.6,248.291,375.271,248.291z"/>
	</g>
</g>
<g>
	<g>
		<path d="M375.271,293.979H191.202c-4.329,0-7.837,3.509-7.837,7.837c0,4.328,3.509,7.837,7.837,7.837h184.069
			c4.329,0,7.837-3.509,7.837-7.837C383.108,297.488,379.6,293.979,375.271,293.979z"/>
	</g>
</g>
<g>
	<g>
		<path d="M375.272,339.666h-33.59c-4.329,0-7.837,3.509-7.837,7.837c0,4.328,3.508,7.837,7.837,7.837h33.59
			c4.329,0,7.837-3.509,7.837-7.837C383.109,343.175,379.6,339.666,375.272,339.666z"/>
	</g>
</g>
<g>
	<g>
		<path d="M311.38,339.666H191.202c-4.329,0-7.837,3.509-7.837,7.837c0,4.328,3.509,7.837,7.837,7.837H311.38
			c4.329,0,7.837-3.509,7.837-7.837C319.216,343.175,315.709,339.666,311.38,339.666z"/>
	</g>
</g>
<g>
	<g>
		<path d="M459.119,183.38c-4.329,0-7.837,3.509-7.837,7.837v246.153c0,2.237-1.891,4.127-4.128,4.127H301.975
			c-4.329,0-7.837,3.509-7.837,7.837c0,4.328,3.508,7.837,7.837,7.837h94.833v35.028c0,2.238-1.891,4.128-4.128,4.128H189.126
			c-4.329,0-7.837,3.509-7.837,7.837c0,4.328,3.508,7.837,7.837,7.837H392.68c10.919,0,19.802-8.883,19.802-19.802V457.17h34.672
			c10.919,0,19.802-8.883,19.802-19.801V191.216C466.955,186.888,463.447,183.38,459.119,183.38z"/>
	</g>
</g>
<g>
	<g>
		<path d="M456.199,106.17l-95.415-95.415C354.652,4.624,343.488,0,334.817,0H119.322c-10.92,0-19.804,8.883-19.804,19.801v35.028
			h-34.67c-10.92,0-19.804,8.883-19.804,19.801v417.568c0,10.918,8.884,19.802,19.804,19.802h90.839
			c4.329,0,7.837-3.509,7.837-7.837c0-4.328-3.508-7.837-7.837-7.837H64.849c-2.239,0-4.13-1.89-4.13-4.128V74.63
			c0-2.237,1.891-4.127,4.13-4.127h34.67v366.867c0,10.918,8.884,19.801,19.804,19.801h148.171c4.329,0,7.837-3.509,7.837-7.837
			c0-4.328-3.508-7.837-7.837-7.837H119.322c-2.239,0-4.13-1.89-4.13-4.127V19.801c0-2.237,1.891-4.127,4.13-4.127h215.495
			c1.218,0,2.64,0.227,4.128,0.612v91.922c0,10.918,8.883,19.801,19.8,19.801h91.924c0.386,1.487,0.613,2.911,0.613,4.128v28.778
			c0,4.328,3.508,7.837,7.837,7.837c4.329,0,7.837-3.509,7.837-7.837v-28.776C466.955,123.466,462.331,112.304,456.199,106.17z
			 M358.745,112.336v-0.001c-2.237,0-4.126-1.89-4.126-4.127V26.756l85.579,85.58H358.745z"/>
	</g>
</g>
<g>
	<g>
		<path d="M217.847,59.045c-19.013,0-34.482,15.469-34.482,34.482s15.469,34.482,34.482,34.482
			c19.013,0,34.482-15.469,34.482-34.482S236.86,59.045,217.847,59.045z M217.847,112.335c-10.371,0-18.808-8.438-18.808-18.808
			s8.438-18.808,18.808-18.808s18.808,8.438,18.808,18.808S228.217,112.335,217.847,112.335z"/>
	</g>
</g>
<g>
</g>
<g>
</g>
<g>
</g>
<g>
</g>
<g>
</g>
<g>
</g>
<g>
</g>
<g>
</g>
<g>
</g>
<g>
</g>
<g>
</g>
<g>
</g>
<g>
</g>
<g>
</g>
<g>
</g>
</svg>
