<?xml version="1.0" encoding="iso-8859-1"?>
<!-- Generator: Adobe Illustrator 19.0.0, SVG Export Plug-In . SVG Version: 6.00 Build 0)  -->
<svg version="1.1" id="Capa_1" xmlns="http://www.w3.org/2000/svg" xmlns:xlink="http://www.w3.org/1999/xlink" x="0px" y="0px"
	 viewBox="0 0 512 512" style="enable-background:new 0 0 512 512;" xml:space="preserve">
<g>
	<g>
		<path d="M451.62,100.062C461.174,89.431,467,75.385,467,60c0-33.084-26.916-60-60-60s-60,26.916-60,60
			c0,15.385,5.826,29.431,15.38,40.062c-15.975,7.603-29.755,19.153-40.102,33.399C301.667,124.635,279.018,120,256,120
			c-23.019,0-45.667,4.635-66.279,13.461c-10.347-14.246-24.127-25.796-40.102-33.399C159.174,89.431,165,75.385,165,60
			c0-33.084-26.916-60-60-60S45,26.916,45,60c0,15.385,5.826,29.431,15.38,40.062C24.733,117.026,0,153.649,0,196v30
			c0,8.284,6.716,15,15,15h81.215C92.091,255.548,90,270.609,90,286c0,53.853,26.58,104.336,70.219,135.049
			C153.671,434.683,150,449.924,150,466v31c0,8.284,6.716,15,15,15h182c8.284,0,15-6.716,15-15v-31
			c0-16.076-3.671-31.317-10.219-44.951C395.42,390.336,422,339.853,422,286c0-15.392-2.091-30.452-6.214-45H497
			c8.284,0,15-6.716,15-15v-30C512,153.649,487.267,117.026,451.62,100.062z M407,30c16.542,0,30,13.458,30,30s-13.458,30-30,30
			s-30-13.458-30-30S390.458,30,407,30z M105,30c16.542,0,30,13.458,30,30s-13.458,30-30,30S75,76.542,75,60S88.458,30,105,30z
			 M30,211v-15c0-41.906,33.645-76,75-76s75,34.094,75,76v15C176.49,211,30.599,211,30,211z M332,482H180v-16
			c0-41.355,34.093-75,76-75c41.906,0,76,33.645,76,75V482z M225,331c0-16.262,14.196-30,31-30s31,13.738,31,30
			c0,16.262-14.196,30-31,30C239.196,361,225,347.262,225,331z M335.061,396.142c-9.421-10.451-20.915-19.028-33.839-25.092
			C311.417,359.98,317,345.893,317,331c0-16.053-6.476-31.177-18.235-42.585C287.19,277.185,272.002,271,256,271
			c-16.003,0-31.19,6.185-42.765,17.415C201.476,299.823,195,314.947,195,331c0,14.893,5.582,28.981,15.777,40.05
			c-12.923,6.064-24.417,14.641-33.838,25.092C141.537,370.972,120,329.848,120,286c0-15.513,2.585-30.606,7.682-45H195
			c8.284,0,15-6.716,15-15v-30c0-12.59-2.19-24.673-6.199-35.885C220.069,153.552,238.166,150,256,150s35.931,3.552,52.199,10.115
			C304.19,171.327,302,183.41,302,196v30c0,8.284,6.716,15,15,15h67.318c5.097,14.393,7.682,29.486,7.682,45
			C392,329.848,370.464,370.973,335.061,396.142z M482,211c-0.596,0-146.478,0-150,0v-15c0-41.906,33.645-76,75-76
			c41.355,0,75,34.094,75,76V211z"/>
	</g>
</g>
<g>
</g>
<g>
</g>
<g>
</g>
<g>
</g>
<g>
</g>
<g>
</g>
<g>
</g>
<g>
</g>
<g>
</g>
<g>
</g>
<g>
</g>
<g>
</g>
<g>
</g>
<g>
</g>
<g>
</g>
</svg>
