<svg xmlns="http://www.w3.org/2000/svg" width="15.833" height="19" viewBox="0 0 15.833 19">
  <path id="document" d="M11.5,5.542V.364a5.523,5.523,0,0,1,1.951,1.259l2.758,2.76a5.505,5.505,0,0,1,1.26,1.951H12.292a.792.792,0,0,1-.792-.792ZM17.833,8.3v6.741A3.963,3.963,0,0,1,13.875,19H5.958A3.963,3.963,0,0,1,2,15.042V3.958A3.963,3.963,0,0,1,5.958,0H9.533c.129,0,.257.01.384.019V5.542a2.375,2.375,0,0,0,2.375,2.375h5.523c.009.127.019.255.019.384ZM11.5,15.042a.792.792,0,0,0-.792-.792H6.75a.792.792,0,0,0,0,1.583h3.958A.792.792,0,0,0,11.5,15.042Zm2.375-3.167a.792.792,0,0,0-.792-.792H6.75a.792.792,0,1,0,0,1.583h6.333A.792.792,0,0,0,13.875,11.875Z" transform="translate(-2)" fill="#9a9a9a"/>
</svg>
