<svg xmlns="http://www.w3.org/2000/svg" width="31.245" height="32.246" viewBox="0 0 31.245 32.246">
  <g id="Group_3305" data-name="Group 3305" transform="translate(-7.947)">
    <path id="Path_10770" data-name="Path 10770" d="M8.6,86.223a5.49,5.49,0,0,1,3.446,3.446.945.945,0,0,0,1.794,0,5.49,5.49,0,0,1,3.446-3.446.945.945,0,0,0,0-1.794,5.49,5.49,0,0,1-3.446-3.446.945.945,0,0,0-1.794,0A5.49,5.49,0,0,1,8.6,84.428a.945.945,0,0,0,0,1.794Z" transform="translate(0 -75.274)" fill="#e18c9c"/>
    <path id="Path_10771" data-name="Path 10771" d="M249.119,115.435a.945.945,0,0,0,.945.945h1.079v1.079a.945.945,0,1,0,1.889,0V116.38h1.079a.945.945,0,0,0,0-1.889h-1.079v-1.079a.945.945,0,1,0-1.889,0v1.079h-1.079a.945.945,0,0,0-.945.945Z" transform="translate(-225.983 -105.384)" fill="#e18c9c"/>
    <path id="Path_10772" data-name="Path 10772" d="M169.731,3.913h1.079V4.992a.945.945,0,1,0,1.889,0V3.913h1.079a.945.945,0,0,0,0-1.889H172.7V.945a.945.945,0,1,0-1.889,0V2.024h-1.079a.945.945,0,0,0,0,1.889Z" transform="translate(-150.709)" fill="#e18c9c"/>
    <path id="Path_10773" data-name="Path 10773" d="M39,284.414a4.8,4.8,0,0,0,1.884-.732c.034-.023.066-.047.1-.071l1.718-8.588h.642a.945.945,0,0,0,0-1.889H25.131a.945.945,0,0,0,0,1.889h.642l1.7,8.481a1.584,1.584,0,0,0,.274-.219l5.826-5.826a.945.945,0,0,1,1.336,1.336L29.08,284.62a3.581,3.581,0,0,1-1.229.79l.4,2.008a.945.945,0,0,0,.926.759h7.446A2.837,2.837,0,0,1,39,284.414Z" transform="translate(-15.216 -255.931)" fill="#e18c9c"/>
    <path id="Path_10774" data-name="Path 10774" d="M10.977,374.66a1.566,1.566,0,0,1-.969-1.451,1.5,1.5,0,0,1,.1-.547l-.475-2.374-.526.526a3.366,3.366,0,0,0-.992,2.4,3.449,3.449,0,0,0,2.135,3.2,3.359,3.359,0,0,0,2.541.04l-.381-1.906A1.565,1.565,0,0,1,10.977,374.66Z" transform="translate(-0.16 -346.967)" fill="#e18c9c"/>
    <path id="Path_10775" data-name="Path 10775" d="M411.676,17.4V.945a.945.945,0,1,0-1.889,0V17.4a6.885,6.885,0,0,1,1.889,0Z" transform="translate(-376.532)" fill="#e18c9c"/>
    <path id="Path_10776" data-name="Path 10776" d="M260.183,305.267a5,5,0,0,0-4.992,4.992,5.9,5.9,0,0,1-5.221,6.143.945.945,0,0,0,.094,1.885h7.083c7.114,0,8.028-5.356,8.028-8.028A5,5,0,0,0,260.183,305.267Z" transform="translate(-225.983 -286.041)" fill="#e18c9c"/>
  </g>
</svg>
