<svg xmlns="http://www.w3.org/2000/svg" width="19.13" height="12.702" viewBox="0 0 19.13 12.702">
  <g id="Group_3290" data-name="Group 3290" transform="translate(-50.47 -146.196)">
    <g id="settings-sliders_1_" data-name="settings-sliders (1)" transform="translate(50.47 146.196)">
      <path id="Path_31" data-name="Path 31" d="M1.435,5.744H3.543c.173,2.1,1.618,2.351,2.723,2.351S8.816,7.84,8.99,5.744H19.7a.435.435,0,1,0,0-.87H8.989c-.173-2.1-1.618-2.351-2.723-2.351s-2.549.255-2.723,2.351H1.435a.435.435,0,1,0,0,.87ZM6.266,3.393c1.184,0,1.87.313,1.87,1.916S7.45,7.225,6.266,7.225,4.4,6.912,4.4,5.309s.686-1.916,1.87-1.916Z" transform="translate(-1 -2.523)" fill="#02478c"/>
      <path id="Path_32" data-name="Path 32" d="M19.694,11.147H17.586c-.173-2.1-1.618-2.351-2.723-2.351s-2.549.255-2.723,2.351H1.435a.435.435,0,0,0,0,.87H12.14c.173,2.1,1.618,2.351,2.723,2.351s2.549-.255,2.723-2.351H19.7a.435.435,0,0,0,0-.87ZM14.863,13.5c-1.184,0-1.87-.313-1.87-1.916s.686-1.916,1.87-1.916,1.87.313,1.87,1.916S16.048,13.5,14.863,13.5Z" transform="translate(-1 -1.665)" fill="#02478c"/>
    </g>
  </g>
</svg>
