<svg xmlns="http://www.w3.org/2000/svg" width="25.224" height="33" viewBox="0 0 25.224 33">
  <g id="Group_3304" data-name="Group 3304" transform="translate(-9.26 -2.25)">
    <path id="Path_10778" data-name="Path 10778" d="M17.06,41.9v-.007h-.729A7.08,7.08,0,0,0,9.26,48.965V52.49a.416.416,0,0,0,.416.416h11.78V45.778a6.149,6.149,0,0,1-2.763-.931A3.476,3.476,0,0,1,17.06,41.9Z" transform="translate(0 -17.656)" fill="#4e7b9c"/>
    <path id="Path_10779" data-name="Path 10779" d="M37.875,41.894h-.729V41.9a3.474,3.474,0,0,1-1.634,2.946,6.148,6.148,0,0,1-2.762.931v7.129H44.53a.416.416,0,0,0,.416-.416V48.965a7.08,7.08,0,0,0-7.071-7.071Zm-2.22,7.8a.416.416,0,0,1-.832,0V48.438a.416.416,0,1,1,.832,0Zm3.771,0a.416.416,0,1,1-.832,0V48.438a.416.416,0,0,1,.832,0Z" transform="translate(-10.462 -17.656)" fill="#4e7b9c"/>
    <path id="Path_10780" data-name="Path 10780" d="M32.784,40.955V39.772a6.511,6.511,0,0,1-7.96,0v1.183a2.639,2.639,0,0,0,1.237,2.238,4.894,4.894,0,0,0,5.485,0A2.637,2.637,0,0,0,32.784,40.955Z" transform="translate(-6.932 -16.712)" fill="#4e7b9c"/>
    <path id="Path_10781" data-name="Path 10781" d="M27.4,34.811a5.733,5.733,0,0,0,5.726-5.726V27.451H21.676v1.634A5.733,5.733,0,0,0,27.4,34.811Z" transform="translate(-5.53 -11.224)" fill="#4e7b9c"/>
    <path id="Path_10782" data-name="Path 10782" d="M16.75,26.99a1.849,1.849,0,0,0,1.92,1.843c-.008-.129-.02-.257-.02-.387V26.812h-1.2a.416.416,0,0,1-.416-.416v-.38a1.825,1.825,0,0,0-.285.975Z" transform="translate(-3.336 -10.585)" fill="#4e7b9c"/>
    <path id="Path_10783" data-name="Path 10783" d="M45.708,26.99a1.825,1.825,0,0,0-.285-.975v.38a.416.416,0,0,1-.416.416h-1.2c0,.3.014,1.752-.02,2.021a1.849,1.849,0,0,0,1.92-1.843Z" transform="translate(-15.379 -10.585)" fill="#4e7b9c"/>
    <path id="Path_10784" data-name="Path 10784" d="M15.312,9.914a1.862,1.862,0,0,1,1,1.609v3.456a.416.416,0,0,0,.416.416H30.574a.416.416,0,0,0,.416-.416V11.523a1.861,1.861,0,0,1,1-1.609,4.1,4.1,0,0,0,2.061-3.574,4.052,4.052,0,0,0-4-4.091,3.921,3.921,0,0,0-2.139.635,1.92,1.92,0,0,1-2.118,0,3.984,3.984,0,0,0-4.279,0,1.92,1.92,0,0,1-2.118,0,3.92,3.92,0,0,0-2.139-.635,4.052,4.052,0,0,0-4,4.091,4.1,4.1,0,0,0,2.062,3.574Zm11.878.908L28.2,8.108a.416.416,0,1,1,.78.291L27.97,11.114a.416.416,0,0,1-.78-.291ZM23.233,8.163a.416.416,0,0,1,.832,0v2.9a.416.416,0,0,1-.832,0Zm-4.673-.3a.416.416,0,0,1,.535.245l1.012,2.714a.416.416,0,1,1-.779.29L18.316,8.4A.416.416,0,0,1,18.561,7.864Z" transform="translate(-1.777)" fill="#4e7b9c"/>
  </g>
</svg>
