<svg xmlns="http://www.w3.org/2000/svg" width="26.095" height="24.915" viewBox="0 0 26.095 24.915">
  <path id="Path_10777" data-name="Path 10777" d="M0,11.868V9.15A1.631,1.631,0,0,1,1.631,7.519H2.718A29.712,29.712,0,0,1,5.1,3.223,4.223,4.223,0,0,1,7.247,1.748c1.915-.931,9.687-.931,11.6,0A4.223,4.223,0,0,1,21,3.223a29.712,29.712,0,0,1,2.378,4.3h1.087A1.631,1.631,0,0,1,26.095,9.15v2.718a98.546,98.546,0,0,0-13.047-1.087A98.548,98.548,0,0,0,0,11.868Zm26.095,2.2v2.15a4.349,4.349,0,0,1-4.349,4.349H4.349A4.349,4.349,0,0,1,0,16.217V14.072a98.76,98.76,0,0,1,13.047-1.117,98.762,98.762,0,0,1,13.047,1.117ZM6.524,17.3a1.087,1.087,0,1,0-1.087,1.087A1.087,1.087,0,0,0,6.524,17.3Zm15.222,0a1.087,1.087,0,1,0-1.087,1.087A1.087,1.087,0,0,0,21.746,17.3Zm-14.2,5.436c.638,4.3-5.95,4.3-5.31,0Zm16.309,0c.638,4.3-5.95,4.3-5.31,0Z" transform="translate(0 -1.05)" fill="#ddb24e"/>
</svg>
